<?xml version="1.0" encoding="UTF-8"?>
<svg id="Layer_2" data-name="Layer 2" xmlns="http://www.w3.org/2000/svg" viewBox="0 0 226.22 100.7">
  <defs>
    <style>
      .cls-1 {
        fill: #a9a9b1;
      }

      .cls-1, .cls-2 {
        stroke-width: 0px;
      }

      .cls-2 {
        fill: #5c60ab;
      }
    </style>
  </defs>
  <g id="Layer_1-2" data-name="Layer 1">
    <rect class="cls-1" x="0" y="68.27" width="5.28" height="32.43" rx="2.64" ry="2.64"/>
    <rect class="cls-1" x="15.51" y="59.37" width="5.28" height="41.33" rx="2.64" ry="2.64"/>
    <rect class="cls-1" x="28.92" y="65.23" width="5.28" height="35.47" rx="2.64" ry="2.64"/>
    <rect class="cls-1" x="44.43" y="31.84" width="5.28" height="68.85" rx="2.64" ry="2.64"/>
    <rect class="cls-1" x="63.21" y="28.08" width="5.28" height="72.62" rx="2.64" ry="2.64"/>
    <rect class="cls-2" x="82" y="0" width="5.28" height="100.7" rx="2.64" ry="2.64"/>
    <rect class="cls-1" x="99.37" y="16.48" width="5.28" height="84.22" rx="2.64" ry="2.64"/>
    <rect class="cls-1" x="116.74" y="42.2" width="5.28" height="58.5" rx="2.64" ry="2.64"/>
    <rect class="cls-1" x="134.1" y="38.63" width="5.28" height="62.07" rx="2.64" ry="2.64"/>
    <rect class="cls-1" x="151.47" y="32.67" width="5.28" height="68.03" rx="2.64" ry="2.64"/>
    <rect class="cls-1" x="168.84" y="18" width="5.28" height="82.69" rx="2.64" ry="2.64"/>
    <rect class="cls-1" x="186.21" y="10.79" width="5.28" height="89.91" rx="2.64" ry="2.64"/>
    <rect class="cls-1" x="203.58" y="4.67" width="5.28" height="96.03" rx="2.64" ry="2.64"/>
    <rect class="cls-1" x="220.95" y="0" width="5.28" height="100.7" rx="2.64" ry="2.64"/>
  </g>
</svg>